<svg id="Camada_1" data-name="Camada 1" xmlns="http://www.w3.org/2000/svg" viewBox="0 0 952.03 187.34"><defs><style>.cls-1{fill:#f8fbff;}.cls-2{fill:#1d1d1b;}</style></defs><polygon class="cls-1" points="761.22 72 794.41 111.32 815.86 151.15 872.03 169.02 923.1 150.13 934.84 64.85 889.39 33.19 841.39 37.79 806.67 13.79 775.01 22.47 761.22 72"/><path class="cls-2" d="M869.94,22.89a81.26,81.26,0,0,0-10.41.68A62,62,0,1,0,789.3,120.3a82.09,82.09,0,1,0,80.64-97.41Zm-4.66,137.49a60.1,60.1,0,0,1-57.74-76.81,28.05,28.05,0,0,1-3.32.2,28.37,28.37,0,1,1,27.86-33.62,60.12,60.12,0,1,1,33.2,110.23Z"/><circle class="cls-2" cx="864.84" cy="100.47" r="40.47"/><path class="cls-2" d="M0,185.25V2.18H27.88V86.44L55.75,2.18H84.57L54.19,92.47,87,185.25H57.52L28.08,99.75v85.5Z"/><path class="cls-2" d="M91.22,185.25,117.33,2.18h36.82l27.78,183.07h-26l-4.37-32.66H122l-4,32.66Zm33.5-55h23.92L136.37,38.28H136Z"/><path class="cls-2" d="M198.46,185.25V2.18h46.08Q258.9,2.18,266,7.8t9.31,16.44a132.86,132.86,0,0,1,2.24,26.42q0,16.13-3.28,25.32T260.87,88.31a15.14,15.14,0,0,1,8,3.9,21.71,21.71,0,0,1,5.21,9A69.56,69.56,0,0,1,277,116.24q.87,9.21.88,22.52v5.82c0,3.19,0,7,.05,11.29s.09,8.65.16,12.95.17,8,.31,11a28.06,28.06,0,0,0,.52,5.4H251c-.2-.34-.36-2.13-.46-5.35s-.21-7.34-.32-12.33-.17-10.36-.21-16.12-.05-11.43-.05-17V119.62a48.94,48.94,0,0,0-1.19-12.43,9,9,0,0,0-4.37-5.88q-3.18-1.66-9.1-2l-8.95-.52v86.43Zm28-108.07h11.12c3.4,0,6-.76,7.75-2.29s3-4.33,3.64-8.42a119,119,0,0,0,1-17.69V47.64A90,90,0,0,0,249,32.77q-.95-5.21-3.9-7.18t-9.21-2h-9.46Z"/><path class="cls-2" d="M334.94,187.34q-11.44,0-19.09-3.59a28.31,28.31,0,0,1-12.07-10.51,47.27,47.27,0,0,1-6.29-16.85,122.75,122.75,0,0,1-1.87-22.62V117.44H322v18.41q0,14.76,2.49,21.22t9.89,6.44c3.32,0,5.84-.77,7.54-2.34s2.84-4,3.43-7.48a82.75,82.75,0,0,0,.88-13.47A41.16,41.16,0,0,0,342,121.39a75.66,75.66,0,0,0-13.06-17.68L315.38,89.77a99.28,99.28,0,0,1-10.14-12.38,56.71,56.71,0,0,1-7.18-14.62,57.47,57.47,0,0,1-2.65-18q0-14.46,3.54-24.45a28,28,0,0,1,12-15.13Q319.32,0,334,0q11,0,18.15,3.38a25.69,25.69,0,0,1,11.13,9.88A45.12,45.12,0,0,1,369,29.07a121.82,121.82,0,0,1,1.66,21.27V61.68H344.92V48.58A89.86,89.86,0,0,0,344,34.74c-.59-3.67-1.69-6.43-3.28-8.27s-3.92-2.75-7-2.75a12,12,0,0,0-7.07,1.92,10.65,10.65,0,0,0-3.9,5.93,36.92,36.92,0,0,0-1.2,10.35,30,30,0,0,0,1.46,9.88,27.79,27.79,0,0,0,4.47,8q3,3.86,7.49,8.63l15.08,16.33A98.16,98.16,0,0,1,367,109a64.16,64.16,0,0,1,6,28.08q0,16.44-3.54,27.62t-11.86,16.9Q349.29,187.34,334.94,187.34Z"/><path class="cls-2" d="M381.74,185.25,407.85,2.18h36.82l27.78,183.07h-26l-4.37-32.66H412.53l-3.95,32.66Zm33.5-55h23.92L426.89,38.28h-.42Z"/><path class="cls-2" d="M493.35,185.25V26.32H471.93V2.18h69.79V26.32H521.13V185.25Z"/><path class="cls-2" d="M557.32,185.25V2.18h61.37v24H585.2V79.47H617V103H585.2v58.25h34.74v24Z"/><path class="cls-2" d="M640.54,185.25V2.18h46.08q14.36,0,21.43,5.62t9.3,16.44a132.86,132.86,0,0,1,2.24,26.42q0,16.13-3.28,25.32T703,88.31a15.14,15.14,0,0,1,8,3.9,21.7,21.7,0,0,1,5.2,9A69.56,69.56,0,0,1,719,116.24q.88,9.21.88,22.52v5.82c0,3.19,0,7,.05,11.29s.09,8.65.16,12.95.17,8,.31,11a29,29,0,0,0,.52,5.4H693.07c-.21-.34-.37-2.13-.47-5.35s-.21-7.34-.31-12.33-.18-10.36-.21-16.12-.05-11.43-.05-17V119.62q0-8.22-1.2-12.43a9,9,0,0,0-4.37-5.88c-2.11-1.11-5.15-1.77-9.1-2l-9-.52v86.43Zm28-108.07h11.13q5.1,0,7.75-2.29T691,66.47a119,119,0,0,0,1-17.69V47.64a89.8,89.8,0,0,0-.94-14.87q-.93-5.21-3.9-7.18t-9.21-2h-9.46Z"/></svg>