<svg id="Camada_1" data-name="Camada 1" xmlns="http://www.w3.org/2000/svg" viewBox="0 0 358.82 358.82"><defs><style>.cls-1{fill:#424d82;}.cls-2{fill:#fff;}</style></defs><rect class="cls-1" width="358.82" height="358.82"/><rect class="cls-2" x="19.07" y="19.07" width="320.68" height="320.68"/><polygon class="cls-2" points="35.68 323.38 35.68 35.44 97.41 35.44 97.41 217.09 278.27 35.44 323.14 35.44 323.14 79.99 140.43 261.64 323.14 261.64 323.14 323.38 35.68 323.38"/><path class="cls-1" d="M318.64,39.94V78.12L145,250.76l-15.48,15.38H318.64v52.74H40.18V39.94H92.91V228l15.38-15.44L280.14,39.94h38.5m9-9H276.4L101.91,206.19V30.94H31.18V327.88H327.64V257.14H151.34L327.64,81.87V30.94Z"/></svg>