<svg id="Camada_1" data-name="Camada 1" xmlns="http://www.w3.org/2000/svg" viewBox="0 0 936.35 247.14"><defs><style>.cls-1{fill:#fff;}</style></defs><path class="cls-1" d="M10.32,122.62V25.52H26V38.17Q33.53,24,48.2,24,60.28,24,67.47,34.5t7.18,26.81q0,15.47-6.86,26.88T47.34,99.62Q33.33,99.62,27,88v34.64m0-54.26a18.8,18.8,0,0,0,4.71,13.11q4.7,5.22,10.46,5.21a12.08,12.08,0,0,0,11.46-6.86Q57.26,73,57.26,62.39q0-11.07-3.67-18T42.67,37.45q-6.54,0-11.11,5.68T27,58Z"/><path class="cls-1" d="M149.33,98.11H134.1V82.44q-6.19,17.19-22.93,17.18-9.93,0-15.74-6.14T89.6,76.33V25.52h16.75V72.81q0,7.84,3.45,10.28a11.69,11.69,0,0,0,6.76,2.44q5.31,0,10.85-4.78T133,60.38V25.52h16.38Z"/><path class="cls-1" d="M185.42,98.11H169V25.52h14.81V42.84Q187,32.7,192.53,28t11.36-4.67c.53,0,1.24,0,2.16.07V41q-12.51,0-16.57,8a34,34,0,0,0-4.06,15.45Z"/><path class="cls-1" d="M279.94,98.11h-15.6a59.22,59.22,0,0,1-2.52-14.66q-6.54,16.17-24.58,16.17-10.85,0-17.43-6.36a21.33,21.33,0,0,1-6.58-16q0-25,43.92-25c1.15,0,2.71,0,4.67.08V46.86q0-11.28-15.38-11.28-15,0-17,11.28l-13.95-2.08q1.16-9.06,9.35-14.91T248.6,24a55.09,55.09,0,0,1,13.73,1.4,21,21,0,0,1,9,4.74,18.19,18.19,0,0,1,5.07,7.26c.93,2.61,1.4,7,1.4,13.26V83.45A53.17,53.17,0,0,0,279.94,98.11ZM261.82,61.17q-31.77,0-31.77,15.16a10.54,10.54,0,0,0,3.2,7.73q3.19,3.19,9.67,3.2,9.35,0,14.12-5.93a20.88,20.88,0,0,0,4.78-13.48Z"/><path class="cls-1" d="M357.49,98.11H341.1V50.6q0-7.69-3.27-10.82a10.73,10.73,0,0,0-7.65-3.12,14.85,14.85,0,0,0-11.72,5.53q-4.74,5.54-4.74,18.26V98.11H297.33V0h16.39V38.24q6.11-15.68,21.42-15.67,22.35,0,22.35,25.66Z"/><path class="cls-1" d="M24.94,128.4v20.12H39.53v12.73H24.94v35.43c0,4.55.83,7.66,2.48,9.31s4.78,2.48,9.38,2.48c1.29,0,2.66-.05,4.1-.14v12.79a58.37,58.37,0,0,1-11.36,1.58,23.15,23.15,0,0,1-11.36-2.62,16.08,16.08,0,0,1-6.93-7.19q-2.19-4.56-2.19-14V161.25H0V148.52H10l1.51-18.9"/><path class="cls-1" d="M101,198l14.81,2a31,31,0,0,1-11.22,16.24q-8.34,6.41-20.91,6.4-15.11,0-24.3-10.14T50.15,185q0-16.47,9.27-27.25T84.58,147q15.53,0,24,10.64T117.07,185l-.07,1.87H67.19a40.5,40.5,0,0,0,1.4,11.86,16,16,0,0,0,5.57,7.77,16.26,16.26,0,0,0,10.42,3.3Q96.73,209.76,101,198Zm-1-21.7q-.08-7.85-4.71-12.8a15.88,15.88,0,0,0-22.75-.32q-4.52,4.64-5.31,13.12Z"/><path class="cls-1" d="M176.13,194.45l14.09,1.44q-2.73,13.67-10.57,20.2a28.51,28.51,0,0,1-18.9,6.54q-15,0-23.11-11t-8.09-26.85q0-16.38,8.85-27.1T162,147q23.73,0,28.25,25L176.13,174q-1.86-13.51-13.3-13.52a12.71,12.71,0,0,0-12.11,7.3Q147,175,147,185.4q0,11,3.92,17a12.39,12.39,0,0,0,11,6Q172.62,208.33,176.13,194.45Z"/><path class="cls-1" d="M265.1,221.12H248.71V175.76q0-7.19-3.31-10.81a10.4,10.4,0,0,0-8-3.63q-6.39,0-11.21,5.6t-4.81,16.89v37.31H205v-72.6h15v16.82Q227.79,147,242,147a23.76,23.76,0,0,1,16.35,6q6.79,6,6.8,21.2Z"/><path class="cls-1" d="M315.32,222.63q-16.11,0-24.58-11.57a43.7,43.7,0,0,1-8.49-26.53q0-16.09,9.39-26.81T316.4,147q14.58,0,24,10.43t9.38,27.09q0,17.19-9.74,27.64T315.32,222.63Zm.57-13.51q16.55,0,16.54-24.66,0-11.15-4-17.57t-12.14-6.44q-8.49,0-12.58,6.65t-4.1,17.65q0,11.87,4.35,18.11A13.73,13.73,0,0,0,315.89,209.12Z"/><path class="cls-1" d="M383.29,221.12H366.91V123h16.38Z"/><path class="cls-1" d="M433.59,222.63q-16.09,0-24.58-11.57a43.69,43.69,0,0,1-8.48-26.53q0-16.09,9.38-26.81T434.67,147q14.58,0,24,10.43T468,184.53q0,17.19-9.74,27.64T433.59,222.63Zm.58-13.51q16.53,0,16.53-24.66,0-11.15-4-17.57t-12.14-6.44q-8.49,0-12.58,6.65t-4.1,17.65q0,11.87,4.35,18.11A13.74,13.74,0,0,0,434.17,209.12Z"/><path class="cls-1" d="M551.45,134.65v12.58h-5a19,19,0,0,0-5.79.79q-2.48.79-4.85,5.1,8.63,7,8.63,15.67,0,9.63-8.09,16t-21.38,6.32a58.12,58.12,0,0,1-13.44-1.86q-5,2.29-5,7.11a6.57,6.57,0,0,0,2.45,4.89c1.63,1.48,4.09,2.23,7.4,2.23h21.56q11.07,0,17.36,5.71a18.41,18.41,0,0,1,6.29,14.2q0,10.28-9.52,17t-28.21,6.76q-35.16,0-35.15-19.62,0-9.71,10.56-14.74-6.75-5.75-6.75-12,0-9.5,11.57-15.1Q484,179.58,484,168.86q0-9,7.4-15.45t22.5-6.4a67.76,67.76,0,0,1,14,1.51q3.32-13.86,17.47-13.87Zm-55.2,82.52c-2.35,2.15-3.52,4.24-3.52,6.25q0,5,5.89,8.73t18.76,3.78q18.9,0,18.9-9.71a5.86,5.86,0,0,0-3.3-5.42,15.24,15.24,0,0,0-7.55-1.84H508A47.68,47.68,0,0,1,496.25,217.17Zm18-35.8q13.37,0,13.37-12.58a11,11,0,0,0-3.35-8.12q-3.33-3.3-9.74-3.31t-10,3.45a11.54,11.54,0,0,0-3.56,8.63,11.25,11.25,0,0,0,3.52,8.62Q508,181.38,514.22,181.37Z"/><path class="cls-1" d="M580,140H563.65V123H580Zm0,81.08H563.65v-72.6H580Z"/><path class="cls-1" d="M648.09,198l14.8,2a30.92,30.92,0,0,1-11.21,16.24q-8.34,6.41-20.92,6.4-15.09,0-24.29-10.14T597.27,185q0-16.47,9.27-27.25T631.7,147q15.52,0,24,10.64T664.19,185l-.08,1.87H614.3a40.46,40.46,0,0,0,1.41,11.86,16,16,0,0,0,5.57,7.77,16.24,16.24,0,0,0,10.42,3.3Q643.83,209.76,648.09,198Zm-1-21.7q-.08-7.85-4.71-12.8a15.88,15.88,0,0,0-22.75-.32q-4.53,4.64-5.32,13.12Z"/><path class="cls-1" d="M672.5,204.44l15.38-2.94q3.52,8.83,15.53,8.84,15.24,0,15.24-9a5.8,5.8,0,0,0-2.37-4.74,13,13,0,0,0-5.61-2.52l-13.22-2.51q-22-4.25-22-21.49a21.87,21.87,0,0,1,7-16.36q7-6.72,20.78-6.72,23,0,28.1,16.89l-14.59,2.95q-2.31-8.19-13.08-8.19-13.1,0-13.09,8.19,0,5.68,10.57,7.84l15.6,3.23q18.18,3.74,18.18,20.84,0,12-9.34,17.94t-22.21,5.93a41.83,41.83,0,0,1-19.7-4.49A21.48,21.48,0,0,1,672.5,204.44Z"/><rect class="cls-1" x="47.24" y="229.1" width="415.66" height="13.01"/><rect class="cls-1" x="562.73" y="229.1" width="181.28" height="13.01"/><path class="cls-1" d="M854.26,35.8a81.26,81.26,0,0,0-10.41.68,62,62,0,1,0-70.23,96.73A82.09,82.09,0,1,0,854.26,35.8ZM849.6,173.29a60.13,60.13,0,0,1-57.75-76.81,27.92,27.92,0,0,1-3.32.2A28.37,28.37,0,1,1,816.4,63.06a60.11,60.11,0,1,1,33.2,110.23Z"/><circle class="cls-1" cx="849.16" cy="113.38" r="40.47"/></svg>